<?xml version="1.0" encoding="UTF-8" standalone="no"?>
<svg width="18px" height="18px" viewBox="0 0 18 18" version="1.1" xmlns="http://www.w3.org/2000/svg" xmlns:xlink="http://www.w3.org/1999/xlink" xmlns:sketch="http://www.bohemiancoding.com/sketch/ns">
    <title>icon-like</title>
    <description>Created with Sketch (http://www.bohemiancoding.com/sketch)</description>
    <defs></defs>
    <g id="Page-1" stroke="none" stroke-width="1" fill="none" fill-rule="evenodd" sketch:type="MSPage">
        <g id="icon-like" sketch:type="MSLayerGroup" fill="#555555">
            <path d="M17.6506175,6.06811523 L11.2978418,6.06811523 L9.23370659,0.241164591 C9.1871921,0.0975983534 9.05272257,8.03974147e-07 8.9020609,8.03974147e-07 C8.75077257,-0.000322634466 8.61628283,0.0969716914 8.56976833,0.240457069 L6.69042075,6.06811523 L0.349349477,6.06811523 C0.198061147,6.06811523 0.0635714002,6.16571278 0.0170569095,6.30927902 C-0.0295384408,6.45284526 0.0215648328,6.61124924 0.143076612,6.69975008 L5.17681824,10.6501009 L3.19907303,16.7229406 C3.15255854,16.866426 3.20358096,17.02483 3.32582047,17.1140586 C3.44797913,17.201953 3.61483293,17.201953 3.73699159,17.1140586 L8.90143424,13.3641942 L14.0558301,17.1140586 C14.1165557,17.1580462 14.1889654,17.1806262 14.2601017,17.1806262 C14.3325115,17.1806262 14.4049212,17.1580462 14.4656468,17.1140586 C14.588513,17.0242033 14.6402429,16.8670527 14.5937284,16.7229406 L12.6153566,10.6501009 L17.8561626,6.70007352 C17.9790288,6.61155246 18.0294043,6.45282504 17.98291,6.30927902 C17.9363147,6.16603622 17.8018451,6.06811523 17.6506175,6.06811523 Z" id="Shape-copy" sketch:type="MSShapeGroup"></path>
        </g>
    </g>
</svg>