<?xml version="1.0" encoding="UTF-8" standalone="no"?>
<svg width="24px" height="22px" viewBox="0 0 24 22" version="1.1" xmlns="http://www.w3.org/2000/svg" xmlns:xlink="http://www.w3.org/1999/xlink" xmlns:sketch="http://www.bohemiancoding.com/sketch/ns">
    <title>icon-share-stumbleupon</title>
    <description>Created with Sketch (http://www.bohemiancoding.com/sketch)</description>
    <defs></defs>
    <g id="Page-1" stroke="none" stroke-width="1" fill="none" fill-rule="evenodd" sketch:type="MSPage">
        <g id="icon-share-stumbleupon" sketch:type="MSLayerGroup" transform="translate(2.000000, 1.000000)" fill="#EB4823">
            <path d="M20,10 C20,15.5228475 15.5228475,20 10,20 C4.4771525,20 6.76353751e-16,15.5228475 0,10 C-6.76353751e-16,4.4771525 4.4771525,1.01453063e-15 10,0 C15.5228475,-1.01453063e-15 20,4.4771525 20,10 L20,10 Z M10.5117647,5 C8.51856471,5 7.31764706,6.16883206 7.25588235,8 L7.25588235,11 C7.31764706,11.6621298 7.03324706,11.9389313 6.17058824,12 C6.33148706,11.9389313 6.04705882,11.6621298 6.17058824,11 L6.17058824,10 L4,10 L4,11 C4,12.8311679 5.20093176,14 6.17058824,14 C8.16378824,14 9.36470588,12.8311679 9.42647059,11 L9.42647059,8 C9.36470588,7.26916794 9.64910588,6.99236641 10.5117647,7 C10.3508941,6.99236641 10.6352941,7.26916794 10.5117647,8 L11.5970588,9 L12.6823529,8 C12.6823529,6.16883206 11.4814353,5 10.5117647,5 Z M10.6352941,10 L10.6352941,12 C10.6352941,12.911168 11.8362118,14 13.8541176,14 C14.7990824,14 16,12.911168 16,12 L16,10 L13.8541176,10 L13.8541176,12 C13.9529412,11.886144 13.6685412,12.144 13.8541176,12 C12.9667529,12.144 12.6823529,11.886144 12.7811765,12 L12.7811765,10 L11.7082353,10 L10.6352941,10 Z" id="path2987" sketch:type="MSShapeGroup"></path>
        </g>
    </g>
</svg>