<?xml version="1.0" encoding="UTF-8" standalone="no"?>
<svg width="24px" height="22px" viewBox="0 0 24 22" version="1.1" xmlns="http://www.w3.org/2000/svg" xmlns:xlink="http://www.w3.org/1999/xlink" xmlns:sketch="http://www.bohemiancoding.com/sketch/ns">
    <title>icon-share-reddit</title>
    <description>Created with Sketch (http://www.bohemiancoding.com/sketch)</description>
    <defs></defs>
    <g id="Page-1" stroke="none" stroke-width="1" fill="none" fill-rule="evenodd" sketch:type="MSPage">
        <g id="icon-share-reddit" sketch:type="MSLayerGroup">
            <path d="M6.20528847,12.0511364 C6.20528847,13.0393264 6.98529012,13.8693182 7.94687501,13.8693182 C8.90845989,13.8693182 9.68846154,13.0393264 9.68846154,12.0511364 C9.68846154,11.0629455 8.90845989,10.2613636 7.94687501,10.2613636 C6.98529012,10.2613636 6.20528847,11.0629455 6.20528847,12.0511364 Z" id="eye-left" fill="#FF4500" sketch:type="MSShapeGroup"></path>
            <path d="M13.8350962,12.0511364 C13.8350962,13.0393264 14.6150978,13.8693182 15.5766827,13.8693182 C16.5382676,13.8693182 17.3182692,13.0393264 17.3182692,12.0511364 C17.3182692,11.0629455 16.5382676,10.2613636 15.5766827,10.2613636 C14.6150978,10.2613636 13.8350962,11.0629455 13.8350962,12.0511364 Z" id="eye-right" fill="#FF4500" sketch:type="MSShapeGroup"></path>
            <path d="M8.01653847,16.4245454 C8.95953847,17.3936364 10.4810769,17.58 11.7425385,17.58" id="mouth-left" stroke="#000000" stroke-width="1.10000002" stroke-linecap="round" sketch:type="MSShapeGroup"></path>
            <path d="M15.8959616,16.4245454 C14.9520769,17.3936364 13.4323077,17.58 12.1699616,17.58" id="mouth-right" stroke="#000000" stroke-width="1.10000002" stroke-linecap="round" sketch:type="MSShapeGroup"></path>
            <path d="M23,14 C23,9.35786417 18.0751325,6 12,6 C5.92486745,6 1,9.35786417 1,14 C1,17.6421358 5.92486745,21 12,21 C18.0751325,21 23,17.6421358 23,14 Z M2.10000002,14 C2.10000002,10.1380318 6.35962594,7.10000002 12,7.10000002 C17.6403741,7.10000002 21.9,10.1380318 21.9,14 C21.9,16.9878806 17.4227145,19.9 12,19.9 C6.57728548,19.9 2.10000002,16.9878806 2.10000002,14 Z" id="head" fill="#000000" sketch:type="MSShapeGroup"></path>
            <path d="M17.9833462,2.39090909 C17.9833462,2.39090909 17.9833462,2.39090909 13.2028846,1.23454545 L11.4460385,6.94181818" id="a" stroke="#000000" stroke-width="1.10000002" sketch:type="MSShapeGroup"></path>
            <path d="M22.0107694,2.53636372 C22.0107694,1.16649154 20.9243372,0.049999984 19.5765385,0.049999984 C18.2287399,0.049999984 17.1423077,1.16649154 17.1423077,2.53636372 C17.1423077,3.9062359 18.2287399,5.02272746 19.5765385,5.02272746 C20.9243372,5.02272746 22.0107694,3.9062359 22.0107694,2.53636372 Z M18.2423077,2.53636372 C18.2423077,1.76738748 18.8430732,1.15 19.5765385,1.15 C20.3100039,1.15 20.9107694,1.76738748 20.9107694,2.53636372 C20.9107694,3.30533996 20.3100039,3.92272744 19.5765385,3.92272744 C18.8430732,3.92272744 18.2423077,3.30533996 18.2423077,2.53636372 Z" id="atop" fill="#000000" sketch:type="MSShapeGroup"></path>
            <path d="M20.4902307,5.96363634 C22.4246521,5.96363634 23.9804614,7.56249177 23.9804614,9.5199999 C23.9804614,10.6034072 23.5038848,11.5769517 22.7503101,12.2303732 C22.6385493,11.8448195 22.4906415,11.4719951 22.3093729,11.1134306 C22.6654818,10.6844831 22.8804614,10.1280417 22.8804614,9.5199999 C22.8804614,8.16338771 21.8103187,7.06363636 20.4902307,7.06363636 C19.8756252,7.06363636 19.3151989,7.30202281 18.8917267,7.69373053 C18.5643958,7.50723521 18.221664,7.3344514 17.8650951,7.17623812 C18.5036914,6.43374816 19.4412993,5.96363634 20.4902307,5.96363634 Z" id="ear-right" fill="#000000" sketch:type="MSShapeGroup"></path>
            <path d="M3.49023068,5.96363634 C1.55580931,5.96363634 -1.85098941e-08,7.56249177 -1.85098941e-08,9.5199999 C-1.85098941e-08,10.6108861 0.483179046,11.5903875 1.24579692,12.2438594 C1.35650568,11.8587365 1.50325763,11.4862772 1.68328232,11.1280034 C1.31989289,10.697122 1.1,10.1349508 1.1,9.5199999 C1.1,8.16338771 2.17014266,7.06363636 3.49023068,7.06363636 C4.10843993,7.06363636 4.67183281,7.3048266 5.09616974,7.70063675 C5.42282735,7.51397089 5.76487751,7.34098137 6.1207607,7.18252493 C5.48205627,6.43640284 4.54211949,5.96363634 3.49023068,5.96363634 Z" id="ear-left" fill="#000000" sketch:type="MSShapeGroup"></path>
        </g>
    </g>
</svg>