<?xml version="1.0" encoding="UTF-8" standalone="no"?>
<svg width="24px" height="22px" viewBox="0 0 24 22" version="1.1" xmlns="http://www.w3.org/2000/svg" xmlns:xlink="http://www.w3.org/1999/xlink" xmlns:sketch="http://www.bohemiancoding.com/sketch/ns">
    <title>icon-share-pocket</title>
    <description>Created with Sketch (http://www.bohemiancoding.com/sketch)</description>
    <defs></defs>
    <g id="Page-1" stroke="none" stroke-width="1" fill="none" fill-rule="evenodd" sketch:type="MSPage">
        <g id="icon-share-pocket" sketch:type="MSLayerGroup" transform="translate(2.000000, 2.000000)" fill="#DC3D50">
            <path d="M15.7035,8.06972222 L10.9885,12.8434722 C10.722,13.1126389 10.3795,13.24775 10.037,13.24775 C9.694,13.24775 9.3515,13.1126389 9.0855,12.8434722 L4.3695,8.06972222 C3.822,7.51502778 3.8035,6.59669444 4.329,6.01825 C4.8545,5.43980556 5.7245,5.42080556 6.2725,5.9755 L10.037,9.78605556 L13.8005,5.9755 C14.3485,5.42080556 15.2185,5.44033333 15.744,6.01772222 C16.2695,6.59669444 16.251,7.5145 15.7035,8.06972222 L15.7035,8.06972222 Z M19.9485,1.41813889 C19.688,0.662888889 19.001,0.154638889 18.2395,0.154638889 L1.818,0.154638889 C1.069,0.154638889 0.386,0.651805556 0.1195,1.39227778 C0.04,1.61236111 0,1.84088889 0,2.07363889 L0,8.45816667 L0.069,9.72852778 C0.3595,12.6165278 1.78,15.1398333 3.977,16.8999722 C4.0165,16.9321667 4.0565,16.9633056 4.0965,16.9939167 L4.122,17.0123889 C5.3,17.92175 6.6185,18.5371389 8.0415,18.8400833 C8.698,18.9804722 9.3695,19.0517222 10.0365,19.0517222 C10.6525,19.0517222 11.272,18.9915556 11.8805,18.8722778 C11.9535,18.8569722 12.026,18.8427222 12.0995,18.8258333 C12.12,18.8216111 12.1415,18.8126389 12.164,18.8015556 C13.526,18.487 14.7915,17.8879722 15.9255,17.0123889 L15.9505,16.9939167 C15.9905,16.9633056 16.031,16.9321667 16.0705,16.8999722 C18.2675,15.1398333 19.688,12.6165278 19.978,9.72852778 L20.0475,8.45816667 L20.0475,2.07363889 C20.0475,1.85302778 20.022,1.634 19.9485,1.41813889 L19.9485,1.41813889 Z" id="Fill-9" sketch:type="MSShapeGroup"></path>
        </g>
    </g>
</svg>