<?xml version="1.0" encoding="UTF-8" standalone="no"?>
<svg width="22px" height="16px" viewBox="0 0 22 16" version="1.1" xmlns="http://www.w3.org/2000/svg" xmlns:xlink="http://www.w3.org/1999/xlink" xmlns:sketch="http://www.bohemiancoding.com/sketch/ns">
    <title>icon-share-digg</title>
    <description>Created with Sketch (http://www.bohemiancoding.com/sketch)</description>
    <defs></defs>
    <g id="Page-1" stroke="none" stroke-width="1" fill="none" fill-rule="evenodd" sketch:type="MSPage">
        <g id="icon-share-digg" sketch:type="MSLayerGroup" transform="translate(1.000000, 0.000000)" fill="#333333">
            <path d="M3,4 L0,4 L0,12 L5,12 L5,1 L3,1 L3,4 Z M2,10 L2,6 L3,6 L3,10 L2,10 Z" id="Shape" sketch:type="MSShapeGroup"></path>
            <rect id="Rectangle" sketch:type="MSShapeGroup" x="6" y="4" width="2" height="8"></rect>
            <rect id="Rectangle" sketch:type="MSShapeGroup" x="6" y="1" width="2" height="2"></rect>
            <path d="M9,12 L12,12 L12,13 L9,13 L9,15 L14,15 L14,4 L9,4 L9,12 Z M11,10 L11,6 L12,6 L12,10 L11,10 Z" id="Shape" sketch:type="MSShapeGroup"></path>
            <path d="M15,12 L18,12 L18,13 L15,13 L15,15 L20,15 L20,4 L15,4 L15,12 Z M17,10 L17,6 L18,6 L18,10 L17,10 Z" id="Shape" sketch:type="MSShapeGroup"></path>
        </g>
    </g>
</svg>