<?xml version="1.0" encoding="UTF-8" standalone="no"?>
<svg width="24px" height="22px" viewBox="0 0 24 22" version="1.1" xmlns="http://www.w3.org/2000/svg" xmlns:xlink="http://www.w3.org/1999/xlink" xmlns:sketch="http://www.bohemiancoding.com/sketch/ns">
    <title>icon-share-twitter</title>
    <description>Created with Sketch (http://www.bohemiancoding.com/sketch)</description>
    <defs></defs>
    <g id="Page-1" stroke="none" stroke-width="1" fill="none" fill-rule="evenodd" sketch:type="MSPage">
        <g id="icon-share-twitter" sketch:type="MSLayerGroup" transform="translate(0.000000, 2.000000)" fill="#00ACED">
            <path d="M7.23768282,18.3205834 C4.57079742,18.3205834 2.08819944,17.5405447 0,16.2056814 C2.50490028,16.498929 5.00510534,15.8068645 6.99118373,14.2573439 C4.92528659,14.2186353 3.18101207,12.8591391 2.58002381,10.9893921 C3.31952109,11.128978 4.04728031,11.0867503 4.71165404,10.9072827 C2.4415148,10.4533354 0.874484869,8.41467768 0.924958492,6.23526112 C1.56116091,6.5871583 2.28892013,6.7994696 3.06480536,6.82410241 C0.961346453,5.42237862 0.365053415,2.65529376 1.60224409,0.542737658 C3.93107359,3.3872399 7.41023218,5.26050592 11.3342629,5.45756834 C10.6452393,2.51336189 12.8872072,-0.320583435 15.9344055,-0.320583435 C17.2924981,-0.320583435 18.5202983,0.250662995 19.3818713,1.16442268 C20.4570769,0.955630355 21.468897,0.562678499 22.3797698,0.0231028152 C22.0264544,1.12336801 21.2787405,2.04533864 20.3044822,2.62714198 C21.2599597,2.51336189 22.1696587,2.25999592 23.0159722,1.88815789 C22.3809436,2.83006936 21.5804085,3.65820073 20.6589714,4.32211342 C20.9559441,10.9412995 16.00366,18.3205834 7.23768282,18.3205834 Z" id="Path" sketch:type="MSShapeGroup"></path>
        </g>
    </g>
</svg>