<?xml version="1.0" encoding="UTF-8" standalone="no"?>
<svg width="21px" height="18px" viewBox="0 0 21 18" version="1.1" xmlns="http://www.w3.org/2000/svg" xmlns:xlink="http://www.w3.org/1999/xlink" xmlns:sketch="http://www.bohemiancoding.com/sketch/ns">
    <title>icon-share</title>
    <description>Created with Sketch (http://www.bohemiancoding.com/sketch)</description>
    <defs></defs>
    <g id="Page-1" stroke="none" stroke-width="1" fill="none" fill-rule="evenodd" sketch:type="MSPage">
        <g id="icon-share" sketch:type="MSLayerGroup" transform="translate(1.000000, 0.000000)" fill="#555555">
            <path d="M0.0287986041,16.0278769 C0.0287986041,16.0278769 -2.64440021e-16,10.2002576 -2.08166817e-16,7.36507973 C-1.02779262e-07,5.58832302 0.0127463581,2.09043789 0.0127463581,2.09043789 C0.0127463581,2.09043789 3.36660443,2.06712246 4.82481911,2.06712246 C6.52233126,2.06712246 10.2602439,2.06730556 10.2602439,2.06730556 C10.2602439,2.06730556 8.84972146,2.39933681 7.79625466,3.11173916 C6.74278775,3.82414142 5.76451638,5.07072353 5.76451638,5.07072353 L3.04784157,5.02738857 C2.97356212,5.02738857 2.98302224,13.0926962 2.98302224,13.0926962 L16.0368552,13.0387411 L16.0455122,11.2144448 L18.9883833,8.60962638 L19.0549117,12.9917648 C19.0549117,14.9868744 18.9735008,16.0101767 18.9735008,16.0101767 L0.0287986041,16.0278769 Z M8.3619185,5.31067932 C10.9755166,3.24448423 14.0595603,3.07279873 14.0595603,3.07279873 L14.0674949,-1.80411242e-16 L20.1740438,5.00801631 L14.0595603,10.3983605 L14.0595603,7.24882412 C14.0595603,7.24882412 11.9764928,7.28643509 9.88791704,8.03005695 C7.79934126,8.77367881 4.49170487,11.4517314 4.49170487,11.4517314 C4.49170487,11.4517314 5.74832063,7.37687462 8.3619185,5.31067932 Z" id="Shape" sketch:type="MSShapeGroup"></path>
        </g>
    </g>
</svg>