<?xml version="1.0" encoding="UTF-8" standalone="no"?>
<svg width="24px" height="22px" viewBox="0 0 24 22" version="1.1" xmlns="http://www.w3.org/2000/svg" xmlns:xlink="http://www.w3.org/1999/xlink" xmlns:sketch="http://www.bohemiancoding.com/sketch/ns">
    <title>icon-share-linkedin</title>
    <description>Created with Sketch (http://www.bohemiancoding.com/sketch)</description>
    <defs></defs>
    <g id="Page-1" stroke="none" stroke-width="1" fill="none" fill-rule="evenodd" sketch:type="MSPage">
        <g id="icon-share-linkedin" sketch:type="MSLayerGroup" transform="translate(12.000000, 11.000000) scale(1, -1) translate(-12.000000, -11.000000) translate(2.000000, 1.000000)" fill="#006699">
            <path d="M0,19 C7.64361424e-15,19.3583559 0.661689562,20 1,20 L19,20 C19.3382835,20 20,19.3583559 20,19 L20,1 C20,0.641376822 19.3382835,0 19,0 L1,0 C0.661689562,0 0,0.641376822 0,1 L0,19 Z M6,11.9999998 L3,11.9999998 L3,2.99999996 L6,3.00000002 L6,11.9999998 Z M4.48940581,17.1999969 C5.42244566,17.1999969 6.17882383,16.4436188 6.17882383,15.5105789 C6.17882383,14.5775391 5.42244566,13.8211609 4.48940581,13.8211609 C3.55636596,13.8211609 2.79998779,14.5775391 2.79998779,15.5105789 C2.79998779,16.4436188 3.55636596,17.1999969 4.48940581,17.1999969 Z M8,3 L11,3 L11,8 C10.9483858,8.17356232 10.9675476,8.43611762 11,9 C11.2585433,9.14910226 11.7436762,9.69294822 13,10 C13.6250689,9.69294822 14.0518504,8.88654697 14,8 L14,3 L17,3 L17,8 C17,10.7431694 15.545415,12 14,12 C12.0150115,12 11.3167372,11.1186573 11,11 L11,12 L8,12 C8.03876968,10.9685142 8.00007875,3 8,3 Z" id="path14" sketch:type="MSShapeGroup"></path>
        </g>
    </g>
</svg>