<?xml version="1.0" encoding="UTF-8" standalone="no"?>
<svg width="17px" height="17px" viewBox="0 0 17 17" version="1.1" xmlns="http://www.w3.org/2000/svg" xmlns:xlink="http://www.w3.org/1999/xlink">
    <g class="icon-menu-close" transform="translate(0.000000, 1.000000)" fill="#FFFFFF">
      <path d="M6.679,7.792 L0.687,1.799 C0.19,1.302 0.189,0.485 0.693,-0.02 C1.201,-0.527 2.011,-0.527 2.512,-0.026 L8.504,5.966 L14.484,-0.014 C14.988,-0.519 15.793,-0.517 16.291,-0.02 C16.791,0.481 16.785,1.287 16.285,1.787 L10.305,7.767 L16.297,13.759 C16.794,14.256 16.795,15.073 16.291,15.577 C15.783,16.085 14.973,16.085 14.472,15.584 L8.48,9.592 L2.5,15.572 C1.995,16.077 1.191,16.075 0.693,15.577 C0.192,15.077 0.198,14.271 0.698,13.771 L6.679,7.792 L6.679,7.792 Z"></path>
  </g>
</svg>