<?xml version="1.0" encoding="UTF-8" standalone="no"?>
<svg width="24px" height="22px" viewBox="0 0 24 22" version="1.1" xmlns="http://www.w3.org/2000/svg" xmlns:xlink="http://www.w3.org/1999/xlink" xmlns:sketch="http://www.bohemiancoding.com/sketch/ns">
    <title>icon-share-print</title>
    <description>Created with Sketch (http://www.bohemiancoding.com/sketch)</description>
    <defs></defs>
    <g id="Page-1" stroke="none" stroke-width="1" fill="none" fill-rule="evenodd" sketch:type="MSPage">
        <g id="icon-share-print" sketch:type="MSLayerGroup" transform="translate(1.000000, 1.000000)" fill="#BBBBBB">
            <path d="M18,20 L18,11 L3,11 L3,20 L18,20 Z M17,12 L17,19 L4,19 L4,12 L17,12 Z" id="product" sketch:type="MSShapeGroup"></path>
            <path d="M0,15.9975267 L0,6.00247329 C0,5.45576096 0.447153856,5 0.998746091,5 L20.0012539,5 C20.5613852,5 21,5.44882258 21,6.00247329 L21,15.9975267 C21,16.544239 20.5528461,17 20.0012539,17 L18,17 L18,11 L3,11 L3,17 L0.998746091,17 C0.438614845,17 0,16.5511774 0,15.9975267 Z M16,8 L16,10 L18,10 L18,8 L16,8 Z" id="body" sketch:type="MSShapeGroup"></path>
            <path d="M18,0 L3,0 L3,7 L18,7 L18,0 Z M4,1 L17,1 L17,6 L4,6 L4,1 Z" id="feed" sketch:type="MSShapeGroup"></path>
            <path d="M5,13 L5,14 L11,14 L11,13 L5,13 Z M5,15 L5,16 L13,16 L13,15 L5,15 Z M5,17 L5,18 L9,18 L9,17 L5,17 Z" id="words" sketch:type="MSShapeGroup"></path>
        </g>
    </g>
</svg>