<?xml version="1.0" encoding="UTF-8" standalone="no"?>
<svg width="24px" height="22px" viewBox="0 0 24 22" version="1.1" xmlns="http://www.w3.org/2000/svg" xmlns:xlink="http://www.w3.org/1999/xlink" xmlns:sketch="http://www.bohemiancoding.com/sketch/ns">
    <title>icon-share-pinterest</title>
    <description>Created with Sketch (http://www.bohemiancoding.com/sketch)</description>
    <defs></defs>
    <g id="Page-1" stroke="none" stroke-width="1" fill="none" fill-rule="evenodd" sketch:type="MSPage">
        <g id="icon-share-pinterest" sketch:type="MSLayerGroup" transform="translate(3.000000, 0.000000)" fill="#BB0E0E">
            <path d="M10.5865908,15.8960638 C9.16250126,15.8960638 7.84406283,15.1834133 7.37083367,14.3431897 C7.37083367,14.3431897 6.63237609,17.2476801 6.44748656,17.8074626 C5.89501904,19.7947455 4.23321434,21.7809287 4.10115039,21.9348964 C3.99659977,22.0613698 3.81281077,22.0107804 3.78529745,21.8832072 C3.75998519,21.6291605 3.33738055,19.10629 3.83812303,17.0695175 C4.07583814,16.0500315 5.49992772,10.191561 5.49992772,10.191561 C5.49992772,10.191561 5.10263534,9.37553229 5.10263534,8.17898342 C5.10263534,6.29397904 6.21087199,4.91816779 7.60744825,4.91816779 C8.79492326,4.91816779 9.37380358,5.75839145 9.37380358,6.80317217 C9.37380358,7.95023143 8.60783267,9.68236789 8.21274135,11.2869311 C7.89798894,12.6374477 8.92368561,13.731718 10.2960502,13.731718 C12.7733497,13.731718 14.4351544,10.649065 14.4351544,7.0055297 C14.4351544,4.22971228 12.5103224,2.16544552 9.00512505,2.16544552 C5.02449751,2.16544552 2.54609739,5.01934655 2.54609739,8.20317834 C2.54609739,9.32384314 2.88836312,10.0881827 3.41661892,10.6996544 C3.6532335,10.9811953 3.68074682,11.0823741 3.60150845,11.3881099 C3.5464818,11.6421566 3.3891056,12.2030389 3.33628002,12.4064962 C3.25814218,12.7375267 2.99511482,12.840905 2.67816134,12.7375267 C0.858980433,11.9995816 0.0159722222,10.062888 0.0159722222,7.89744251 C0.0159722222,4.30559635 3.12607823,0 9.34739079,0 C14.3548155,0.00109976918 17.6244988,3.49176716 17.6244988,7.23538146 C17.6244988,12.2030389 14.7774202,15.8960638 10.5865908,15.8960638 Z" id="Path" sketch:type="MSShapeGroup"></path>
        </g>
    </g>
</svg>