<?xml version="1.0" encoding="UTF-8" standalone="no"?>
<svg width="24px" height="22px" viewBox="0 0 24 22" version="1.1" xmlns="http://www.w3.org/2000/svg" xmlns:xlink="http://www.w3.org/1999/xlink" xmlns:sketch="http://www.bohemiancoding.com/sketch/ns">
    <title>icon-share-googleplus</title>
    <description>Created with Sketch (http://www.bohemiancoding.com/sketch)</description>
    <defs></defs>
    <g id="Page-1" stroke="none" stroke-width="1" fill="none" fill-rule="evenodd" sketch:type="MSPage">
        <g id="icon-share-googleplus" sketch:type="MSLayerGroup" transform="translate(2.000000, 1.000000)" fill="#DC4A38">
            <path d="M1.3,0 C0.593249167,0 0,0.585677252 0,1.3 L0,18.7 C0,19.4143227 0.593249167,20 1.3,20 L18.7,20 C19.4067508,20 20,19.4141607 20,18.7 L20,1.3 C20,0.585677252 19.4065845,0 18.7,0 L1.3,0 Z M10.116,10.5287805 C9.91383333,10.3652033 9.63733333,10.1492683 9.63733333,9.75398374 C9.63733333,9.35707317 9.91383333,9.10471545 10.1538333,8.87105691 C10.9271667,8.27723577 11.6998333,7.64520325 11.6998333,6.31333333 C11.6998333,4.94373984 10.8165,4.22325203 10.3931667,3.88146341 L11.5346667,3.88146341 L12.7328333,3.14699187 L9.103,3.14699187 C8.107,3.14699187 6.67166666,3.37691057 5.62083333,4.22325203 C4.82883333,4.8899187 4.4425,5.80910569 4.4425,6.63658537 C4.4425,8.04130081 5.548,9.46520325 7.50016666,9.46520325 C7.6845,9.46520325 7.88616666,9.44747967 8.08916666,9.42910569 C7.998,9.64552846 7.90583333,9.82569106 7.90583333,10.1315447 C7.90583333,10.6894309 8.19966666,11.0315447 8.45866666,11.3556098 C7.62916666,11.4112195 6.08066666,11.500813 4.93916666,12.1853659 C3.852,12.8160976 3.52116666,13.7341463 3.52116666,14.3821138 C3.52116666,15.7157724 4.80966666,16.9580488 7.4815,16.9580488 C10.6498333,16.9580488 12.3271667,15.2476423 12.3271667,13.5544715 C12.3273333,12.3104065 11.5906667,11.6980488 10.7798333,11.0317073 L10.116,10.5287805 Z M6.06366666,5.75528455 C6.06366666,5.28569106 6.15483333,4.80081301 6.46833333,4.42211382 C6.76383333,4.06146341 7.2785,3.82747967 7.759,3.82747967 C9.287,3.82747967 10.0795,5.84439024 10.0795,7.14162602 C10.0795,7.46617886 10.0428333,8.04130081 9.61916666,8.45707317 C9.32283333,8.74552846 8.827,8.9604878 8.36666666,8.9604878 C6.78166666,8.9604878 6.06366666,6.96146341 6.06366666,5.75528455 Z M5.14283333,14.0043902 C5.14283333,12.7256911 6.32133333,12.2931707 6.72683333,12.1499187 C7.50016666,11.8960976 8.49533333,11.8606504 8.66133333,11.8606504 C8.8455,11.8606504 8.93766666,11.8606504 9.08433333,11.8786992 C10.4855,12.8515447 11.0936667,13.3364228 11.0936667,14.2573984 C11.0936667,15.3726829 10.1538333,16.203252 8.38483333,16.203252 C6.41383333,16.203252 5.14283333,15.2834146 5.14283333,14.0043902 Z M15.7321667,8.93300813 L15.7321667,7.13219512 L14.8205,7.13219512 L14.8205,8.93300813 L12.9776667,8.93300813 L12.9776667,9.83235772 L14.8205,9.83235772 L14.8205,11.6442276 L15.7321667,11.6442276 L15.7321667,9.83235772 L17.5843333,9.83235772 L17.5843333,8.93300813 L15.7321667,8.93300813 Z" id="Shape" sketch:type="MSShapeGroup"></path>
        </g>
    </g>
</svg>