<?xml version="1.0" encoding="UTF-8" standalone="no"?>
<svg width="17px" height="17px" viewBox="0 0 17 17" version="1.1" xmlns="http://www.w3.org/2000/svg" xmlns:xlink="http://www.w3.org/1999/xlink">
  <g id="icon-search" fill="#FFFFFF">
    <path d="M12.4901424,10.5330078 C13.1261856,9.47832347 13.5107216,8.24803581 13.5107216,6.91770745 C13.5107216,3.09700441 10.4863985,0 6.75536078,0 C3.02432306,0 0,3.09700441 0,6.91770745 C0,10.7384105 3.02432306,13.8354149 6.75536078,13.8354149 C8.05446862,13.8354149 9.25588355,13.4416377 10.284777,12.7913732 L13.9389075,16.5322565 C14.5479293,17.1559145 15.5342119,17.1559145 16.1432337,16.5322565 C16.7522554,15.9085986 16.7522554,14.8975491 16.1432337,14.2738911 L12.4901424,10.5330078 Z M2.40345069,6.89551169 C2.40345069,4.43680798 4.35021788,2.44313074 6.75106973,2.44313074 C9.15192159,2.44313074 11.0986888,4.43680798 11.0986888,6.89551169 C11.0986888,9.35421539 9.15192159,11.3478926 6.75106973,11.3478926 C4.35021788,11.3478926 2.40345069,9.35421539 2.40345069,6.89551169 Z"></path>
  </g>
</svg>